<?xml version="1.0" encoding="UTF-8" standalone="no"?>
<svg
   width="16"
   height="16"
   viewBox="0 0 16 16"
   fill="currentColor"
   version="1.1"
   id="svg1"
   sodipodi:docname="zoom-reset.svg"
   inkscape:version="1.4.3 (0d15f75, 2025-12-25)"
   xmlns:inkscape="http://www.inkscape.org/namespaces/inkscape"
   xmlns:sodipodi="http://sodipodi.sourceforge.net/DTD/sodipodi-0.dtd"
   xmlns="http://www.w3.org/2000/svg"
   xmlns:svg="http://www.w3.org/2000/svg">
  <defs
     id="defs1" />
  <sodipodi:namedview
     id="namedview1"
     pagecolor="#ffffff"
     bordercolor="#000000"
     borderopacity="0.25"
     inkscape:showpageshadow="2"
     inkscape:pageopacity="0.0"
     inkscape:pagecheckerboard="0"
     inkscape:deskcolor="#d1d1d1"
     inkscape:zoom="6.2664434"
     inkscape:cx="56.890325"
     inkscape:cy="1.6755916"
     inkscape:window-width="3008"
     inkscape:window-height="1634"
     inkscape:window-x="0"
     inkscape:window-y="58"
     inkscape:window-maximized="0"
     inkscape:current-layer="svg1" />
  <path
     d="M10.0195 10.7266C9.06578 11.5217 7.83875 12 6.5 12C3.46243 12 1 9.53757 1 6.5C1 3.46243 3.46243 1 6.5 1C9.53757 1 12 3.46243 12 6.5C12 7.83875 11.5217 9.06578 10.7266 10.0195L13.8535 13.1464C14.0488 13.3417 14.0488 13.6583 13.8535 13.8536C13.6583 14.0488 13.3417 14.0488 13.1464 13.8536L10.0195 10.7266ZM11 6.5C11 4.01472 8.98528 2 6.5 2C4.01472 2 2 4.01472 2 6.5C2 8.98528 4.01472 11 6.5 11C8.98528 11 11 8.98528 11 6.5Z"
     id="path1" />
  <path
     d="M 7.4980064,3.9600021 V 9.3111124 H 6.0193629 V 5.8047176 Q 5.6604689,6.077477 5.3231085,6.2461572 4.989337,6.4148374 4.4832964,6.5691619 V 5.3704558 Q 5.229796,5.1299967 5.6425242,4.7926363 6.0552523,4.4552759 6.2885334,3.9600021 Z"
     id="text1"
     style="font-weight:900;font-size:7.35015px;font-family:'Arial Black';-inkscape-font-specification:'Arial Black,  Heavy';fill:#000000;stroke:#000000;stroke-width:0"
     transform="scale(1.016552,0.98371751)"
     aria-label="1" />
</svg>
